<?xml version="1.0" encoding="UTF-8"?>
<svg width="512" height="512" version="1.1" viewBox="0 0 58 58" xmlns="http://www.w3.org/2000/svg">
<title>Chakra</title>
<g fill-rule="nonzero">
<path id="Shape" d="m33.67 14.75c-0.52414-0.17826-1.0584-0.32519-1.6-0.44-2.0292-0.41333-4.1208-0.41333-6.15 0-0.11381-2.1513-0.98115-4.194-2.45-5.77 0.28459-0.96349 0.81135-1.838 1.53-2.54 3.15-3.15 3.82-5.06 3.96-5.73 0.14 0.67 0.81 2.58 3.96 5.73 0.71104 0.70016 1.2368 1.5661 1.53 2.52 0.4791 2.1039 0.20299 4.3092-0.78 6.23z" fill="#FB7B76"/>
<path id="Shape" d="m25.92 14.31c-0.54159 0.11481-1.0759 0.26174-1.6 0.44-0.98116 0.32105-1.9262 0.74332-2.82 1.26-0.89524 0.52532-1.736 1.1383-2.51 1.83-1.1614-1.8192-2.9347-3.1633-5-3.79-0.23757-0.97799-0.22035-2.0006 0.05-2.97 1.14-4.28 0.78-6.26 0.56-6.93 0.46 0.51 2 1.82 6.29 2.97 0.966 0.24815 1.8535 0.73664 2.58 1.42 1.4689 1.576 2.3362 3.6187 2.45 5.77z" fill="#FF5364"/>
<path id="Shape" d="m18.99 17.84c-0.41379 0.36214-0.80142 0.75312-1.16 1.17h-0.01c-1.3852 1.5383-2.4312 3.3509-3.07 5.32-1.9208-0.98299-4.1261-1.2591-6.23-0.78-0.69335-0.72616-1.1891-1.6178-1.44-2.59-1.15-4.29-2.46-5.83-2.97-6.29 0.67 0.22 2.65 0.58 6.93-0.56 0.96256-0.26832 1.9773-0.28896 2.95-0.06 2.0653 0.62666 3.8386 1.9708 5 3.79z" fill="#FB7B76"/>
<path id="Shape" d="m14.31 25.93c-0.41333 2.0292-0.41333 4.1208 0 6.15-2.1513 0.11381-4.194 0.98115-5.77 2.45-0.96349-0.28459-1.838-0.81135-2.54-1.53-3.15-3.15-5.06-3.82-5.73-3.96 0.67-0.14 2.58-0.81 5.73-3.96 0.70016-0.71104 1.5661-1.2368 2.52-1.53 2.1039-0.4791 4.3092-0.20299 6.23 0.78-0.17826 0.52414-0.32519 1.0584-0.44 1.6z" fill="#FF5364"/>
<path id="Shape" d="m17.84 39.01c-1.8192 1.1614-3.1633 2.9347-3.79 5-0.97799 0.23757-2.0006 0.22035-2.97-0.05-4.28-1.14-6.26-0.78-6.93-0.56 0.51-0.46 1.82-2 2.97-6.29 0.24815-0.966 0.73664-1.8535 1.42-2.58 1.576-1.4689 3.6187-2.3362 5.77-2.45 0.11481 0.54159 0.26174 1.0759 0.44 1.6 0.31678 0.9828 0.73925 1.9283 1.26 2.82 0.51854 0.89967 1.132 1.7411 1.83 2.51z" fill="#FB7B76"/>
<path id="Shape" d="m23.55 49.48c-0.72616 0.69336-1.6178 1.1891-2.59 1.44-4.29 1.15-5.83 2.46-6.29 2.97 0.22-0.67 0.58-2.65-0.56-6.93-0.26832-0.96256-0.28896-1.9773-0.06-2.95 0.62666-2.0653 1.9708-3.8386 3.79-5 0.36214 0.41379 0.75312 0.80142 1.17 1.16v0.01c1.5383 1.3852 3.3509 2.4312 5.32 3.07-0.98299 1.9208-1.2591 4.1261-0.78 6.23z" fill="#FF5364"/>
<path id="Shape" d="m34.53 49.46c-0.28459 0.96349-0.81135 1.838-1.53 2.54-3.15 3.15-3.82 5.06-3.96 5.73-0.14-0.67-0.81-2.58-3.96-5.73-0.71104-0.70016-1.2368-1.5661-1.53-2.52-0.4791-2.1039-0.20299-4.3092 0.78-6.23 0.52414 0.17826 1.0584 0.32519 1.6 0.44 2.0292 0.41333 4.1208 0.41333 6.15 0 0.11381 2.1513 0.98115 4.194 2.45 5.77z" fill="#FB7B76"/>
<path id="Shape" d="m43.96 46.92c-1.14 4.28-0.78 6.26-0.56 6.93-0.46-0.51-2-1.82-6.29-2.97-0.966-0.24815-1.8535-0.73664-2.58-1.42-1.4689-1.576-2.3362-3.6187-2.45-5.77 0.54159-0.11481 1.0759-0.26174 1.6-0.44 0.98116-0.32105 1.9262-0.74332 2.82-1.26 0.89524-0.52532 1.736-1.1383 2.51-1.83 1.1614 1.8192 2.9347 3.1633 5 3.79 0.23757 0.97799 0.22035 2.0006-0.05 2.97z" fill="#FF5364"/>
<path id="Shape" d="m53.89 43.33c-0.67-0.22-2.65-0.58-6.93 0.56-0.96256 0.26832-1.9773 0.28896-2.95 0.06-2.0653-0.62666-3.8386-1.9708-5-3.79 0.41379-0.36214 0.80142-0.75312 1.16-1.17h0.01c0.68822-0.76485 1.2948-1.5994 1.81-2.49 0.51673-0.89722 0.93899-1.8456 1.26-2.83 1.9208 0.98299 4.1261 1.2591 6.23 0.78 0.69336 0.72616 1.1891 1.6178 1.44 2.59 1.15 4.29 2.46 5.83 2.97 6.29z" fill="#FB7B76"/>
<path id="Shape" d="m57.73 28.96c-0.67 0.14-2.58 0.81-5.73 3.96-0.70016 0.71104-1.5661 1.2368-2.52 1.53-2.1039 0.4791-4.3092 0.20299-6.23-0.78 0.17826-0.52414 0.32519-1.0584 0.44-1.6 0.41333-2.0292 0.41333-4.1208 0-6.15 2.1513-0.11381 4.194-0.98115 5.77-2.45 0.96349 0.28459 1.838 0.81135 2.54 1.53 3.15 3.15 5.06 3.82 5.73 3.96z" fill="#FF5364"/>
<path id="Shape" d="m53.85 14.6c-0.51 0.46-1.82 2-2.97 6.29-0.24815 0.966-0.73664 1.8535-1.42 2.58-1.576 1.4689-3.6187 2.3362-5.77 2.45-0.11481-0.54159-0.26174-1.0759-0.44-1.6-0.32105-0.98116-0.74332-1.9262-1.26-2.82-0.52532-0.89524-1.1383-1.736-1.83-2.51 1.8192-1.1614 3.1633-2.9347 3.79-5 0.97799-0.23757 2.0006-0.22035 2.97 0.05 4.28 1.14 6.26 0.78 6.93 0.56z" fill="#FB7B76"/>
<path id="Shape" d="m43.95 13.99c-0.62666 2.0653-1.9708 3.8386-3.79 5-0.36214-0.41379-0.75312-0.80142-1.17-1.16v-0.01c-0.76485-0.68822-1.5994-1.2948-2.49-1.81-0.89722-0.51673-1.8456-0.93899-2.83-1.26 0.98299-1.9208 1.2591-4.1261 0.78-6.23 0.72616-0.69335 1.6178-1.1891 2.59-1.44 4.29-1.15 5.83-2.46 6.29-2.97-0.22 0.67-0.58 2.65 0.56 6.93 0.26832 0.96256 0.28896 1.9773 0.06 2.95z" fill="#FF5364"/>
<path id="Shape" d="m29 15c-0.55228 0-1-0.44772-1-1v-6c0-0.55228 0.44772-1 1-1s1 0.44772 1 1v6c0 0.55228-0.44772 1-1 1z" fill="#DF4D60"/>
<path id="Shape" d="m21.501 17.01c-0.35769 4.2e-4 -0.68836-0.19024-0.8672-0.5l-3-5.1963c-0.17863-0.30946-0.1786-0.69072 8.73e-5 -1.0002s0.50888-0.50003 0.8662-0.5c0.35732 3.118e-5 0.68748 0.19069 0.86611 0.50015l3 5.1963c0.17856 0.30927 0.17864 0.6903 2.065e-4 0.99964-0.17843 0.30935-0.50829 0.50006-0.86541 0.50036z" fill="#DF4D60"/>
<path id="Shape" d="m16.009 22.5c-0.17522 1.321e-4 -0.34736-0.046025-0.499-0.1338l-5.1963-3c-0.30946-0.17863-0.50012-0.50879-0.50015-0.86611-3.119e-5 -0.35732 0.19057-0.68751 0.5-0.8662s0.69069-0.17872 1.0002-8.73e-5l5.1963 3c0.39231 0.22632 0.58354 0.68806 0.46611 1.1255-0.11743 0.43742-0.51419 0.74131-0.96711 0.74072z" fill="#DF4D60"/>
<path id="Shape" d="m14 30h-6c-0.55228 0-1-0.44772-1-1s0.44772-1 1-1h6c0.55228 0 1 0.44772 1 1s-0.44772 1-1 1z" fill="#DF4D60"/>
<path id="Shape" d="m10.814 40.5c-0.45291 5.906e-4 -0.84968-0.3033-0.96711-0.74072-0.11743-0.43742 0.073792-0.89916 0.46611-1.1255l5.1963-3c0.47839-0.27614 1.0901-0.11219 1.3662 0.3662 0.27614 0.47839 0.11219 1.0901-0.3662 1.3662l-5.1963 3c-0.15164 0.087775-0.32378 0.13393-0.499 0.1338z" fill="#DF4D60"/>
<path id="Shape" d="m18.499 48.186c-0.35712-2.947e-4 -0.68698-0.19101-0.86541-0.50036-0.17843-0.30935-0.17835-0.69037 2.065e-4 -0.99964l3-5.1963c0.17863-0.30946 0.50879-0.50012 0.86611-0.50015s0.68751 0.19057 0.8662 0.5 0.17872 0.69069 8.73e-5 1.0002l-3 5.1963c-0.17884 0.30976-0.50951 0.50042-0.8672 0.5z" fill="#DF4D60"/>
<path id="Shape" d="m29 51c-0.55228 0-1-0.44772-1-1v-6c0-0.55228 0.44772-1 1-1s1 0.44772 1 1v6c0 0.55228-0.44772 1-1 1z" fill="#DF4D60"/>
<path id="Shape" d="m39.501 48.186c-0.35769 4.2e-4 -0.68836-0.19024-0.8672-0.5l-3-5.1963c-0.17863-0.30946-0.1786-0.69072 8.73e-5 -1.0002 0.17869-0.30943 0.50888-0.50003 0.8662-0.5 0.35732 3.12e-5 0.68748 0.19069 0.86611 0.50015l3 5.1963c0.17856 0.30927 0.17864 0.6903 2.065e-4 0.99964-0.17843 0.30935-0.50829 0.50006-0.86541 0.50036z" fill="#DF4D60"/>
<path id="Shape" d="m47.186 40.5c-0.17521 1.227e-4 -0.34735-0.046034-0.499-0.1338l-5.1963-3c-0.47839-0.27614-0.64234-0.88781-0.3662-1.3662 0.27614-0.47839 0.88781-0.64234 1.3662-0.3662l5.1963 3c0.39231 0.22632 0.58354 0.68806 0.46611 1.1255-0.11743 0.43742-0.51419 0.74131-0.96711 0.74072z" fill="#DF4D60"/>
<path id="Shape" d="m50 30h-6c-0.55228 0-1-0.44772-1-1s0.44772-1 1-1h6c0.55228 0 1 0.44772 1 1s-0.44772 1-1 1z" fill="#DF4D60"/>
<path id="Shape" d="m41.991 22.5c-0.45291 5.906e-4 -0.84968-0.3033-0.96711-0.74072-0.11743-0.43742 0.073792-0.89916 0.46611-1.1255l5.1963-3c0.47839-0.27614 1.0901-0.11219 1.3662 0.3662s0.11219 1.0901-0.3662 1.3662l-5.1963 3c-0.15164 0.087775-0.32378 0.13393-0.499 0.1338z" fill="#DF4D60"/>
<path id="Shape" d="m36.499 17.01c-0.35712-2.947e-4 -0.68698-0.19101-0.86541-0.50036-0.17843-0.30935-0.17835-0.69037 2.065e-4 -0.99964l3-5.1963c0.27614-0.47839 0.88781-0.64234 1.3662-0.3662 0.47839 0.27614 0.64234 0.88781 0.3662 1.3662l-3 5.1963c-0.17884 0.30976-0.50951 0.50042-0.8672 0.5z" fill="#DF4D60"/>
<circle id="Oval" cx="22" cy="3" r="1" fill="#F3D55B"/>
<circle id="Oval" cx="36" cy="3" r="1" fill="#F3D55B"/>
<circle id="Oval" cx="48" cy="10" r="1" fill="#F3D55B"/>
<circle id="Oval" cx="55" cy="22" r="1" fill="#F3D55B"/>
<circle id="Oval" cx="55" cy="36" r="1" fill="#F3D55B"/>
<circle id="Oval" cx="48" cy="48" r="1" fill="#F3D55B"/>
<circle id="Oval" cx="36" cy="55" r="1" fill="#F3D55B"/>
<circle id="Oval" cx="22" cy="55" r="1" fill="#F3D55B"/>
<circle id="Oval" cx="10" cy="48" r="1" fill="#F3D55B"/>
<circle id="Oval" cx="3" cy="36" r="1" fill="#F3D55B"/>
<circle id="Oval" cx="3" cy="22" r="1" fill="#F3D55B"/>
<circle id="b" cx="10" cy="10" r="1" fill="#F3D55B"/>
<path id="Shape" d="m44 29c-0.0010779 1.0311-0.10492 2.0595-0.31 3.07-0.11481 0.54159-0.26174 1.0759-0.44 1.6-0.32101 0.98437-0.74327 1.9328-1.26 2.83-0.51517 0.89064-1.1218 1.7252-1.81 2.49h-0.01c-0.35858 0.41688-0.74621 0.80786-1.16 1.17-0.77396 0.69167-1.6148 1.3047-2.51 1.83-0.89375 0.51668-1.8388 0.93895-2.82 1.26-0.52414 0.17826-1.0584 0.32519-1.6 0.44-2.0292 0.41333-4.1208 0.41333-6.15 0-0.54159-0.11481-1.0759-0.26174-1.6-0.44-1.9691-0.63881-3.7817-1.6848-5.32-3.07v-0.01c-0.41688-0.35858-0.80786-0.74621-1.17-1.16-0.69795-0.76886-1.3115-1.6103-1.83-2.51-0.52075-0.89167-0.94322-1.8372-1.26-2.82-0.17826-0.52414-0.32519-1.0584-0.44-1.6-0.41333-2.0292-0.41333-4.1208 0-6.15 0.11481-0.54159 0.26174-1.0759 0.44-1.6 0.63881-1.9691 1.6848-3.7817 3.07-5.32h0.01c0.35858-0.41688 0.74621-0.80786 1.16-1.17 0.77396-0.69167 1.6148-1.3047 2.51-1.83 0.89375-0.51668 1.8388-0.93895 2.82-1.26 0.52414-0.17826 1.0584-0.32519 1.6-0.44 2.0292-0.41333 4.1208-0.41333 6.15 0 0.54159 0.11481 1.0759 0.26174 1.6 0.44 0.98437 0.32101 1.9328 0.74327 2.83 1.26 0.89064 0.51517 1.7252 1.1218 2.49 1.81v0.01c0.41688 0.35858 0.80786 0.74621 1.17 1.16 0.69167 0.77396 1.3047 1.6148 1.83 2.51 0.51668 0.89375 0.93895 1.8388 1.26 2.82 0.17826 0.52414 0.32519 1.0584 0.44 1.6 0.20558 1.0138 0.30942 2.0456 0.31 3.08z" fill="#F3D55B"/>
<path id="Shape" d="m29 23c-0.55228 0-1-0.44772-1-1v-4c0-0.55228 0.44772-1 1-1s1 0.44772 1 1v4c0 0.55228-0.44772 1-1 1z" fill="#F0C419"/>
<path id="Shape" d="m25.501 23.938c-0.35769 4.2e-4 -0.68836-0.19024-0.8672-0.5l-2-3.4644c-0.17863-0.30946-0.1786-0.69072 8.73e-5 -1.0002s0.50888-0.50003 0.8662-0.5 0.68748 0.19069 0.86611 0.50015l2 3.4644c0.17856 0.30927 0.17864 0.6903 2.065e-4 0.99964-0.17843 0.30935-0.50829 0.50006-0.86541 0.50036z" fill="#F0C419"/>
<path id="Shape" d="m22.936 26.5c-0.17522 1.321e-4 -0.34736-0.046025-0.499-0.1338l-3.4639-2c-0.47839-0.27614-0.64234-0.88781-0.3662-1.3662s0.88781-0.64234 1.3662-0.3662l3.4639 2c0.39231 0.22632 0.58354 0.68806 0.46611 1.1255-0.11743 0.43742-0.51419 0.74131-0.96711 0.74072z" fill="#F0C419"/>
<path id="Shape" d="m22 30h-4c-0.55228 0-1-0.44772-1-1s0.44772-1 1-1h4c0.55228 0 1 0.44772 1 1s-0.44772 1-1 1z" fill="#F0C419"/>
<path id="Shape" d="m19.475 35.5c-0.45291 5.906e-4 -0.84968-0.3033-0.96711-0.74072-0.11743-0.43742 0.073792-0.89916 0.46611-1.1255l3.4639-2c0.30946-0.17863 0.69072-0.1786 1.0002 8.73e-5 0.30943 0.17869 0.50003 0.50888 0.5 0.8662s-0.19069 0.68748-0.50015 0.86611l-3.4639 2c-0.15164 0.087775-0.32378 0.13393-0.499 0.1338z" fill="#F0C419"/>
<path id="Shape" d="m23.499 39.526c-0.35712-2.947e-4 -0.68698-0.19101-0.86541-0.50036-0.17843-0.30935-0.17835-0.69037 2.065e-4 -0.99964l2-3.4644c0.17863-0.30946 0.50879-0.50012 0.86611-0.50015s0.68751 0.19057 0.8662 0.5 0.17872 0.69069 8.73e-5 1.0002l-2 3.4644c-0.17884 0.30976-0.50951 0.50042-0.8672 0.5z" fill="#F0C419"/>
<path id="Shape" d="m29 41c-0.55228 0-1-0.44772-1-1v-4c0-0.55228 0.44772-1 1-1s1 0.44772 1 1v4c0 0.55228-0.44772 1-1 1z" fill="#F0C419"/>
<path id="Shape" d="m34.501 39.526c-0.35769 4.2e-4 -0.68836-0.19024-0.8672-0.5l-2-3.4644c-0.17863-0.30946-0.1786-0.69072 8.73e-5 -1.0002 0.17869-0.30943 0.50888-0.50003 0.8662-0.5 0.35732 3.12e-5 0.68748 0.19069 0.86611 0.50015l2 3.4644c0.17856 0.30927 0.17864 0.6903 2.065e-4 0.99964-0.17843 0.30935-0.50829 0.50006-0.86541 0.50036z" fill="#F0C419"/>
<path id="Shape" d="m38.525 35.5c-0.17522 1.321e-4 -0.34736-0.046025-0.499-0.1338l-3.4639-2c-0.47839-0.27614-0.64234-0.88781-0.3662-1.3662 0.27614-0.47839 0.88781-0.64234 1.3662-0.3662l3.4639 2c0.39231 0.22632 0.58354 0.68806 0.46611 1.1255-0.11743 0.43742-0.51419 0.74131-0.96711 0.74072z" fill="#F0C419"/>
<path id="Shape" d="m40 30h-4c-0.55228 0-1-0.44772-1-1s0.44772-1 1-1h4c0.55228 0 1 0.44772 1 1s-0.44772 1-1 1z" fill="#F0C419"/>
<path id="Shape" d="m35.064 26.5c-0.45291 5.906e-4 -0.84968-0.3033-0.96711-0.74072-0.11743-0.43742 0.073792-0.89916 0.46611-1.1255l3.4639-2c0.47839-0.27614 1.0901-0.11219 1.3662 0.3662s0.11219 1.0901-0.3662 1.3662l-3.4639 2c-0.15164 0.087775-0.32378 0.13393-0.499 0.1338z" fill="#F0C419"/>
<path id="Shape" d="m32.499 23.938c-0.35712-2.947e-4 -0.68698-0.19101-0.86541-0.50036-0.17843-0.30935-0.17835-0.69037 2.065e-4 -0.99964l2-3.4644c0.27614-0.47839 0.88781-0.64234 1.3662-0.3662 0.47839 0.27614 0.64234 0.88781 0.3662 1.3662l-2 3.4644c-0.17884 0.30976-0.50951 0.50042-0.8672 0.5z" fill="#F0C419"/>
<circle cx="29" cy="29" r="7" fill="#FF5364"/>
<path id="Shape" d="m29 33c-0.55228 0-1-0.44772-1-1v-6c0-0.55228 0.44772-1 1-1s1 0.44772 1 1v6c0 0.55228-0.44772 1-1 1z" fill="#F3D55B"/>
<path id="Shape" d="m32 30h-6c-0.55228 0-1-0.44772-1-1s0.44772-1 1-1h6c0.55228 0 1 0.44772 1 1s-0.44772 1-1 1z" fill="#F3D55B"/>
<path id="a" d="m27 32c-0.4044-8.63e-5 -0.76893-0.24373-0.92368-0.61735-0.15474-0.37362-0.06923-0.80366 0.21668-1.0897l4-4c0.39238-0.37897 1.0161-0.37355 1.4018 0.012181s0.39115 1.0094 0.012181 1.4018l-4 4c-0.18729 0.18786-0.44173 0.29331-0.707 0.293z" fill="#F3D55B"/>
<path d="m31 32c-0.26527 3.072e-4 -0.51971-0.10514-0.707-0.293l-4-4c-0.37897-0.39238-0.37355-1.0161 0.012181-1.4018s1.0094-0.39115 1.4018-0.012181l4 4c0.28591 0.28599 0.37142 0.71604 0.21668 1.0897-0.15474 0.37362-0.51928 0.61726-0.92368 0.61735z" fill="#F3D55B"/>
</g>
</svg>
